<svg width="385" height="243" viewBox="0 0 385 243" fill="none" xmlns="http://www.w3.org/2000/svg">
<path d="M168.282 0.263138C166.148 0.529805 162.415 1.72981 160.148 2.92981C156.282 4.92981 155.082 4.92981 144.815 2.92981C138.682 1.59647 131.215 0.663138 128.282 0.663138C115.882 0.663138 89.6151 6.92981 78.4151 12.5298C75.7484 13.8631 70.9484 15.3298 67.7484 15.8631C55.3484 17.7298 33.3484 33.4631 12.0151 55.5965C1.48176 66.5298 -0.918243 71.0631 0.281757 77.5965C2.68176 90.6631 25.3484 119.863 39.4818 128.13C43.7484 130.53 43.8818 130.93 43.0818 137.063C41.6151 147.196 36.0151 158.53 20.6818 181.863C11.7484 195.463 6.54842 204.53 6.94842 205.863C7.34842 207.063 9.08176 209.73 10.8151 211.863L14.0151 215.596L29.2151 192.53C37.6151 179.73 45.3484 167.863 46.4151 165.996C50.2818 159.73 55.2151 145.33 56.1484 138.13C56.9484 131.996 57.8818 130.263 63.4818 124.796C72.5484 115.996 74.2818 108.796 74.2818 80.5298C74.2818 60.6631 74.6818 57.1965 78.2817 42.7965C80.5484 33.9965 82.9484 26.1298 83.7484 25.1965C85.8817 22.6631 98.6817 18.1298 110.148 15.9965C133.748 11.4631 154.415 15.5965 165.482 27.0631C172.282 33.9965 176.282 43.9965 181.082 65.0631C184.548 80.5298 190.415 95.3298 192.948 95.3298C193.482 95.3298 194.682 98.6631 195.615 102.663C198.815 115.996 192.948 130.53 182.815 134.796C173.615 138.663 167.615 135.996 167.615 128.263C167.615 124.796 168.948 122.93 174.282 118.263C182.415 111.33 184.415 104.796 179.748 100.263C177.215 97.7298 175.348 97.3298 165.882 97.4631C149.615 97.4631 138.415 103.063 138.282 111.196C138.282 115.73 146.282 122.93 152.948 123.996C157.348 124.796 158.282 125.463 158.282 127.996C158.282 132.53 152.148 139.063 146.548 140.663C139.215 142.663 135.615 142.263 128.015 138.663C122.548 136.13 120.015 133.863 116.282 128.13C111.482 120.663 108.415 119.063 105.215 122.263C101.348 126.13 105.215 136.396 112.815 143.063C114.682 144.663 119.882 147.863 124.148 149.996C130.548 153.33 132.548 155.063 134.548 159.73C138.948 169.463 144.948 174.263 156.948 177.33L162.948 178.796L164.548 190.796C165.348 197.33 166.148 211.463 166.148 222.263L166.282 241.863L171.348 241.063C174.015 240.663 176.948 239.73 177.615 239.063C179.482 237.33 179.082 208.396 176.948 190.396L175.215 175.463L179.348 170.663C184.815 164.53 187.615 157.73 187.615 150.53C187.615 145.996 188.148 144.663 190.282 143.996C191.615 143.596 195.482 140.263 198.815 136.53C203.882 130.93 205.348 129.996 208.148 130.796C210.815 131.463 211.615 132.53 211.615 135.196C211.615 137.063 212.015 139.996 212.415 141.596C213.082 144.13 212.548 144.663 208.015 145.463C201.882 146.53 199.615 148.13 199.615 151.463C199.615 155.33 204.015 156.93 210.548 155.463C213.615 154.663 216.282 154.263 216.415 154.396C216.548 154.53 217.615 156.663 218.815 158.93C220.015 161.33 225.082 167.33 230.148 172.396L239.215 181.596L236.148 189.063C231.882 199.063 226.548 220.53 225.482 231.463L224.548 240.263L228.415 241.196C230.548 241.73 233.348 242.396 234.548 242.796C236.415 243.33 236.948 242.13 237.615 235.73C239.082 223.196 241.882 211.463 246.148 198.663C248.415 192.13 250.282 186.53 250.282 186.396C250.282 186.13 251.482 185.996 252.948 185.996C254.282 185.996 256.148 184.796 256.948 183.33C258.948 179.596 256.682 175.996 250.548 172.663C243.615 168.93 230.282 155.863 230.282 152.796C230.282 152.13 232.148 150.93 234.282 150.13C242.815 147.196 240.282 140.13 231.082 140.93C225.882 141.33 225.615 141.063 225.215 137.463C224.815 133.863 224.815 133.73 230.015 134.663C238.548 135.996 241.482 129.063 233.615 125.996C231.748 125.196 228.815 124.13 227.082 123.463C224.015 122.263 223.882 121.996 225.615 114.396C226.415 110.13 228.548 103.596 230.015 99.9965C232.282 94.7965 233.215 88.7965 234.148 73.1965C235.215 56.3965 237.748 37.5965 239.082 35.4631C239.348 35.1965 242.415 37.1965 245.882 39.7298C252.415 44.5298 261.082 53.9965 265.615 61.3298C269.748 67.9965 270.415 68.1298 282.148 66.7965C292.415 65.5965 296.948 65.9965 316.415 69.4631C320.148 70.1298 321.348 69.4631 327.748 62.6631C337.748 51.9965 355.748 39.0631 357.748 41.0631C358.148 41.3298 358.948 46.9298 359.748 53.4631C360.682 61.9965 360.682 70.6631 359.482 83.9965C358.148 100.396 358.148 103.596 360.148 109.863C361.348 113.863 362.282 121.596 362.282 126.93V136.663H348.948C337.748 136.663 335.348 137.063 334.682 138.796C333.348 142.263 336.148 145.33 341.082 145.596C343.615 145.863 348.815 146.396 352.548 146.796L359.615 147.463L356.948 152.796C355.482 155.596 354.015 157.996 353.615 157.996C353.348 157.996 349.482 156.396 345.082 154.53C335.082 150.13 329.882 150.796 330.548 156.263C330.815 159.196 332.282 160.396 338.282 162.796C342.282 164.396 345.748 166.263 346.015 167.063C346.415 168.396 337.748 175.73 334.015 177.063C332.815 177.463 330.815 179.33 329.615 181.196C326.815 185.33 328.815 189.996 333.482 189.996C335.748 189.996 339.082 193.463 347.348 204.263C358.948 219.73 367.882 229.996 369.748 229.996C371.082 229.996 378.282 223.596 378.282 222.53C378.282 222.13 375.348 218.396 371.748 214.263C364.282 205.463 348.948 185.33 348.948 184.13C348.948 182.396 360.815 171.33 361.482 172.53C362.415 173.996 368.948 175.33 371.215 174.396C374.148 173.33 373.215 167.596 370.015 165.863C368.282 165.063 366.815 164.13 366.548 163.996C366.282 163.73 367.348 161.196 368.815 158.13C370.415 155.196 371.615 151.863 371.615 150.663C371.615 149.063 372.682 148.796 376.815 149.463C381.215 150.13 382.282 149.863 383.482 147.463C384.682 145.196 384.548 144.263 382.282 141.996C380.815 140.53 378.548 139.33 377.348 139.33C375.215 139.33 374.948 137.863 374.815 127.596C374.682 121.196 373.748 112.663 372.682 108.663C371.215 102.796 371.082 98.1298 372.015 84.6631C373.482 65.7298 371.748 41.7298 368.415 33.7298C366.015 28.2631 362.282 26.5298 355.482 27.8631C349.615 28.9298 333.748 39.7298 324.148 48.9298L315.748 56.9298L310.682 55.1965C307.615 54.1298 299.882 53.4631 290.948 53.4631L276.148 53.5965L272.282 48.2631C266.415 40.5298 250.415 26.2631 243.882 23.1965C240.415 21.4631 236.948 20.6631 235.082 21.1965C228.282 22.9298 223.082 42.2631 221.615 71.3298C220.815 86.6631 220.148 90.7965 216.948 98.9298C214.815 104.263 212.682 111.33 212.282 114.663C211.615 118.263 210.682 120.663 209.615 120.663C208.282 120.663 207.882 117.996 207.882 110.263C207.882 104.396 206.948 97.8631 206.015 95.3298C204.148 90.9298 204.282 90.6631 207.882 87.5965C212.815 83.4631 214.948 79.1965 217.748 67.9965C219.748 60.1298 219.748 57.8631 218.282 50.1298C214.948 32.7965 201.348 10.7965 190.015 4.26314C184.282 0.929805 175.615 -0.670195 168.282 0.263138ZM181.215 13.8631C192.415 18.2631 206.282 42.9298 206.282 58.5298C206.282 66.5298 203.882 73.4631 199.882 77.1965C196.682 79.9965 197.082 80.9298 191.215 55.3298C187.348 38.9298 181.748 25.9965 175.082 18.6631C172.415 15.8631 170.282 13.3298 170.282 13.0631C170.282 12.1298 178.282 12.7965 181.215 13.8631ZM68.9484 29.5965C68.9484 30.2631 67.6151 35.4631 66.0151 41.3298C63.7484 49.9965 63.2151 56.1298 62.9484 73.9965C62.8151 86.1298 62.2818 98.7965 61.7484 102.396C59.3484 116.53 50.8151 121.73 41.4818 114.663C35.2151 109.863 23.4818 95.4631 16.8151 84.5298C12.6818 77.4631 11.7484 74.9298 12.6818 73.0631C14.2818 70.1298 37.8818 47.1965 46.2818 40.3965C56.9484 31.7298 68.9484 26.1298 68.9484 29.5965ZM172.682 146.796C177.348 148.13 176.815 156.396 171.482 161.463C168.015 164.796 166.415 165.33 160.148 165.33C153.482 165.33 152.282 164.93 148.815 160.93C146.682 158.53 144.948 155.863 144.948 154.93C144.948 154.13 148.015 152.396 151.615 151.196C158.148 149.196 158.282 149.196 161.082 152.13C164.548 155.863 165.748 155.33 166.948 149.996C167.882 145.73 168.015 145.596 172.682 146.796Z" fill="black"/>
<path d="M152.682 63.9964C145.882 70.2631 146.282 78.2631 153.349 79.0631C155.749 79.3298 156.949 78.7964 157.615 76.7964C159.215 71.5964 162.015 70.6631 166.415 73.8631C171.482 77.5964 175.615 76.6631 175.615 71.5964C175.615 67.3298 174.682 65.8631 170.282 62.9298C165.215 59.4631 156.949 59.9964 152.682 63.9964Z" fill="black"/>
<path d="M102.415 67.73C96.5481 69.8633 92.6814 75.1967 92.4147 81.5967C92.2814 86.3967 92.548 86.6633 96.548 87.0633C100.415 87.4633 101.081 86.93 102.815 82.7967C105.348 76.7967 110.148 76.2633 114.015 81.4633C116.015 84.3967 117.215 84.93 120.015 84.13C127.215 82.3967 122.681 70.7967 113.615 67.33C109.348 65.73 108.148 65.73 102.415 67.73Z" fill="black"/>
<path d="M243.481 103.33C240.548 106.13 239.615 108.263 239.881 110.93C240.415 115.863 243.881 116.263 249.348 112.13C254.948 107.863 256.281 107.863 259.081 111.996C263.748 119.063 270.948 113.596 266.948 105.996C264.281 100.93 261.215 99.3298 253.615 99.3298C248.548 99.3298 246.681 99.9964 243.481 103.33Z" fill="black"/>
<path d="M312.282 108.53C305.749 111.33 302.282 119.597 306.682 122.53C308.415 123.597 309.482 123.597 311.349 122.263C318.282 117.33 319.615 117.197 323.882 121.863C328.149 126.397 331.082 126.797 333.482 123.063C334.549 121.197 334.282 119.597 332.415 116.13C328.682 109.063 319.482 105.597 312.282 108.53Z" fill="black"/>
<path d="M274.015 123.33C270.815 125.33 270.948 130.13 274.415 134.53C277.615 138.663 276.948 142.396 272.148 145.463C267.748 148.396 263.081 146.93 259.748 141.33C257.881 138.13 256.415 136.93 254.948 137.463C251.748 138.796 251.081 143.996 253.748 147.996C258.148 154.663 266.548 156.93 275.348 153.863C278.948 152.663 280.281 152.93 285.348 155.863C292.148 159.863 294.948 160.13 302.015 157.33C307.481 155.063 312.148 148.93 310.815 145.463C309.615 142.396 306.281 142.796 302.415 146.53C296.815 151.73 293.481 151.996 289.615 147.863C285.215 143.196 285.348 139.863 290.281 135.73C294.548 132.263 295.881 125.596 292.548 124.263C288.281 122.663 276.148 121.996 274.015 123.33Z" fill="black"/>
</svg>
